<svg xmlns="http://www.w3.org/2000/svg" xmlns:xlink="http://www.w3.org/1999/xlink" width="500" zoomAndPan="magnify" viewBox="0 0 375 374.999991" height="500" preserveAspectRatio="xMidYMid meet" version="1.0"><defs><g/><clipPath id="id1"><path d="M 20.160156 166.308594 L 354.660156 166.308594 L 354.660156 206.808594 L 20.160156 206.808594 Z M 20.160156 166.308594 " clip-rule="nonzero"/></clipPath></defs><rect x="-37.5" width="450" fill="#ffffff" y="-37.499999" height="449.999989" fill-opacity="1"/><rect x="-37.5" width="450" fill="#ffffff" y="-37.499999" height="449.999989" fill-opacity="1"/><rect x="-37.5" width="450" fill="#dec2ba" y="-37.499999" height="449.999989" fill-opacity="1"/><g fill="#0d0608" fill-opacity="1"><g transform="translate(123.122835, 167.135754)"><g><path d="M 3.601562 -57.601562 C 5.113281 -54.71875 5.902344 -52.847656 6.984375 -49.03125 L 20.519531 0 L 34.921875 0 C 34.273438 -2.089844 34.414062 -3.097656 34.921875 -5.113281 L 47.160156 -49.824219 C 47.953125 -52.488281 48.238281 -54.070312 50.039062 -57.601562 L 47.230469 -57.601562 C 46.945312 -54.214844 46.367188 -52.488281 45.648438 -49.753906 L 32.761719 -2.519531 L 19.871094 -49.03125 C 18.863281 -52.488281 18.433594 -54 18.214844 -57.601562 Z M 3.601562 -57.601562 "/></g></g></g><g fill="#0d0608" fill-opacity="1"><g transform="translate(173.16281, 167.135754)"><g/></g></g><g fill="#0d0608" fill-opacity="1"><g transform="translate(190.514799, 167.135754)"><g><path d="M 45.71875 -13.390625 C 42.121094 -22.105469 36.214844 -25.558594 29.089844 -26.855469 C 40.175781 -27.71875 48.886719 -31.320312 48.886719 -42.121094 C 48.886719 -54.9375 36.648438 -57.601562 22.824219 -57.601562 L 5.039062 -57.601562 C 5.617188 -52.128906 5.832031 -48.886719 5.832031 -42.191406 L 5.832031 -15.40625 C 5.832031 -8.710938 5.617188 -5.472656 5.039062 0 L 18.71875 0 C 18.144531 -5.472656 17.929688 -8.710938 17.929688 -15.40625 L 17.929688 -26.640625 L 19.511719 -26.640625 C 26.351562 -26.640625 29.304688 -24.625 33.191406 -12.886719 C 36.863281 -1.871094 45.070312 0 58.894531 0 L 58.894531 -1.367188 C 52.414062 -1.367188 49.320312 -4.609375 45.71875 -13.390625 Z M 17.929688 -28.152344 L 17.929688 -56.089844 L 22.609375 -56.089844 C 30.023438 -56.089844 36.574219 -53.207031 36.574219 -42.121094 C 36.574219 -31.03125 30.023438 -28.152344 22.609375 -28.152344 Z M 17.929688 -28.152344 "/></g></g></g><g clip-path="url(#id1)"><path fill="#dec2ba" d="M 20.175781 166.308594 L 354.640625 166.308594 L 354.640625 206.808594 L 20.175781 206.808594 L 20.175781 166.308594 " fill-opacity="1" fill-rule="nonzero"/></g><g fill="#231f20" fill-opacity="1"><g transform="translate(104.308855, 188.688196)"><g><path d="M 8.453125 0 L 7.046875 0 L 2.546875 -6.078125 L 2.546875 0 L 1.109375 0 L 1.109375 -8.46875 L 2.515625 -8.46875 L 7.046875 -2.375 L 7.046875 -8.46875 L 8.453125 -8.46875 Z M 8.453125 0 "/></g></g></g><g fill="#231f20" fill-opacity="1"><g transform="translate(123.552756, 188.688196)"><g><path d="M 6.578125 -1.90625 L 2.3125 -1.90625 L 1.5 0 L 0.015625 0 L 3.75 -8.46875 L 5.21875 -8.46875 L 8.90625 0 L 7.390625 0 Z M 6.03125 -3.1875 L 4.4375 -6.9375 L 2.84375 -3.1875 Z M 6.03125 -3.1875 "/></g></g></g><g fill="#231f20" fill-opacity="1"><g transform="translate(142.14423, 188.688196)"><g><path d="M 6.484375 0 L 4.9375 -2.5625 C 4.851562 -2.550781 4.722656 -2.546875 4.546875 -2.546875 L 2.546875 -2.546875 L 2.546875 0 L 1.109375 0 L 1.109375 -8.46875 L 4.546875 -8.46875 C 5.628906 -8.46875 6.46875 -8.210938 7.0625 -7.703125 C 7.65625 -7.203125 7.953125 -6.492188 7.953125 -5.578125 C 7.953125 -4.898438 7.800781 -4.328125 7.5 -3.859375 C 7.195312 -3.390625 6.765625 -3.046875 6.203125 -2.828125 L 8.109375 0 Z M 2.546875 -3.828125 L 4.546875 -3.828125 C 5.921875 -3.828125 6.609375 -4.394531 6.609375 -5.53125 C 6.609375 -6.632812 5.921875 -7.1875 4.546875 -7.1875 L 2.546875 -7.1875 Z M 2.546875 -3.828125 "/></g></g></g><g fill="#231f20" fill-opacity="1"><g transform="translate(160.554462, 188.688196)"><g><path d="M 6.484375 0 L 4.9375 -2.5625 C 4.851562 -2.550781 4.722656 -2.546875 4.546875 -2.546875 L 2.546875 -2.546875 L 2.546875 0 L 1.109375 0 L 1.109375 -8.46875 L 4.546875 -8.46875 C 5.628906 -8.46875 6.46875 -8.210938 7.0625 -7.703125 C 7.65625 -7.203125 7.953125 -6.492188 7.953125 -5.578125 C 7.953125 -4.898438 7.800781 -4.328125 7.5 -3.859375 C 7.195312 -3.390625 6.765625 -3.046875 6.203125 -2.828125 L 8.109375 0 Z M 2.546875 -3.828125 L 4.546875 -3.828125 C 5.921875 -3.828125 6.609375 -4.394531 6.609375 -5.53125 C 6.609375 -6.632812 5.921875 -7.1875 4.546875 -7.1875 L 2.546875 -7.1875 Z M 2.546875 -3.828125 "/></g></g></g><g fill="#231f20" fill-opacity="1"><g transform="translate(178.964698, 188.688196)"><g><path d="M 6.578125 -1.90625 L 2.3125 -1.90625 L 1.5 0 L 0.015625 0 L 3.75 -8.46875 L 5.21875 -8.46875 L 8.90625 0 L 7.390625 0 Z M 6.03125 -3.1875 L 4.4375 -6.9375 L 2.84375 -3.1875 Z M 6.03125 -3.1875 "/></g></g></g><g fill="#231f20" fill-opacity="1"><g transform="translate(197.556173, 188.688196)"><g><path d="M 6.890625 -7.1875 L 4.203125 -7.1875 L 4.203125 0 L 2.78125 0 L 2.78125 -7.1875 L 0.109375 -7.1875 L 0.109375 -8.46875 L 6.890625 -8.46875 Z M 6.890625 -7.1875 "/></g></g></g><g fill="#231f20" fill-opacity="1"><g transform="translate(214.22658, 188.688196)"><g><path d="M 2.546875 0 L 1.109375 0 L 1.109375 -8.46875 L 2.546875 -8.46875 Z M 2.546875 0 "/></g></g></g><g fill="#231f20" fill-opacity="1"><g transform="translate(227.55026, 188.688196)"><g><path d="M 4.890625 0 L 3.40625 0 L 0.03125 -8.46875 L 1.578125 -8.46875 L 4.1875 -1.578125 L 6.828125 -8.46875 L 8.3125 -8.46875 Z M 4.890625 0 "/></g></g></g><g fill="#231f20" fill-opacity="1"><g transform="translate(245.561794, 188.688196)"><g><path d="M 7.15625 -7.1875 L 2.546875 -7.1875 L 2.546875 -4.890625 L 6.671875 -4.890625 L 6.671875 -3.609375 L 2.546875 -3.609375 L 2.546875 -1.28125 L 7.296875 -1.28125 L 7.296875 0 L 1.109375 0 L 1.109375 -8.46875 L 7.15625 -8.46875 Z M 7.15625 -7.1875 "/></g></g></g><g fill="#231f20" fill-opacity="1"><g transform="translate(263.162532, 188.688196)"><g><path d="M 3.890625 -8.53125 C 4.984375 -8.53125 5.972656 -8.238281 6.859375 -7.65625 L 6.265625 -6.390625 C 5.398438 -6.921875 4.570312 -7.1875 3.78125 -7.1875 C 3.351562 -7.1875 3.015625 -7.109375 2.765625 -6.953125 C 2.523438 -6.796875 2.40625 -6.578125 2.40625 -6.296875 C 2.40625 -6.015625 2.515625 -5.773438 2.734375 -5.578125 C 2.960938 -5.378906 3.242188 -5.234375 3.578125 -5.140625 C 3.921875 -5.046875 4.289062 -4.925781 4.6875 -4.78125 C 5.082031 -4.644531 5.445312 -4.5 5.78125 -4.34375 C 6.125 -4.1875 6.40625 -3.941406 6.625 -3.609375 C 6.851562 -3.273438 6.96875 -2.867188 6.96875 -2.390625 C 6.96875 -1.648438 6.671875 -1.054688 6.078125 -0.609375 C 5.484375 -0.171875 4.710938 0.046875 3.765625 0.046875 C 3.128906 0.046875 2.503906 -0.0703125 1.890625 -0.3125 C 1.285156 -0.550781 0.757812 -0.878906 0.3125 -1.296875 L 0.9375 -2.53125 C 1.363281 -2.132812 1.832031 -1.828125 2.34375 -1.609375 C 2.851562 -1.398438 3.335938 -1.296875 3.796875 -1.296875 C 4.296875 -1.296875 4.679688 -1.382812 4.953125 -1.5625 C 5.234375 -1.75 5.375 -2.003906 5.375 -2.328125 C 5.375 -2.609375 5.257812 -2.847656 5.03125 -3.046875 C 4.8125 -3.242188 4.53125 -3.390625 4.1875 -3.484375 C 3.851562 -3.578125 3.488281 -3.691406 3.09375 -3.828125 C 2.695312 -3.960938 2.328125 -4.101562 1.984375 -4.25 C 1.648438 -4.394531 1.367188 -4.632812 1.140625 -4.96875 C 0.921875 -5.300781 0.8125 -5.703125 0.8125 -6.171875 C 0.8125 -6.890625 1.09375 -7.460938 1.65625 -7.890625 C 2.21875 -8.316406 2.960938 -8.53125 3.890625 -8.53125 Z M 3.890625 -8.53125 "/></g></g></g></svg>